<?xml version="1.0" standalone="no"?><!DOCTYPE svg PUBLIC "-//W3C//DTD SVG 1.1//EN" "http://www.w3.org/Graphics/SVG/1.1/DTD/svg11.dtd"><svg t="1721655560979" class="icon" viewBox="0 0 1024 1024" version="1.1" xmlns="http://www.w3.org/2000/svg" p-id="12222" xmlns:xlink="http://www.w3.org/1999/xlink" width="200" height="200"><path d="M632.661333 132.266667l150.869334 150.869333a383.317333 383.317333 0 0 1 110.037333 314.965333l-2.133333 15.488c-2.56 16.853333-6.272 33.536-11.093334 50.005334l-5.973333 18.474666a379.733333 379.733333 0 0 1-8.96 23.125334l-6.741333 14.848-7.253334 14.378666-6.613333 11.946667-6.826667 11.434667-7.552 11.605333-9.941333 13.994667-8.618667 11.178666-8.96 10.794667-6.144 6.912-11.52 12.202667-1.706666 1.706666a382.592 382.592 0 0 1-254.208 112.085334l-11.52 0.341333h-11.562667a382.72 382.72 0 0 1-265.770667-112.426667l-6.826666-6.954666-11.050667-12.16-6.016-7.082667-10.24-12.842667-11.221333-15.488-6.826667-10.24-8.874667-14.677333-4.693333-8.32-6.912-13.312-5.546667-11.605333-5.504-12.714667-5.546666-14.464-2.986667-8.405333-3.328-10.325334-3.84-13.354666-2.218667-8.746667a384.853333 384.853333 0 0 1-7.978666-44.074667l-1.152-10.282666-0.981334-12.970667-0.554666-12.373333L128 547.669333l0.298667-9.130666a386.133333 386.133333 0 0 1 1.706666-23.893334l1.578667-12.629333a382.293333 382.293333 0 0 1 108.842667-218.88l150.869333-150.826667a170.666667 170.666667 0 0 1 241.322667 0z m-180.992 60.373333L300.8 343.466667a297.301333 297.301333 0 0 0-75.904 128.682666l0.938667-0.128a345.6 345.6 0 0 1 276.565333 74.410667L512 554.666667a319.146667 319.146667 0 0 0 290.133333 70.954666 298.496 298.496 0 0 0-78.933333-282.154666l-150.869333-150.826667a85.333333 85.333333 0 0 0-120.661334 0z" p-id="12223" fill="#ffffff"></path></svg>