<?xml version="1.0" standalone="no"?><!DOCTYPE svg PUBLIC "-//W3C//DTD SVG 1.1//EN" "http://www.w3.org/Graphics/SVG/1.1/DTD/svg11.dtd"><svg t="1721655567144" class="icon" viewBox="0 0 1024 1024" version="1.1" xmlns="http://www.w3.org/2000/svg" p-id="12404" xmlns:xlink="http://www.w3.org/1999/xlink" width="200" height="200"><path d="M514.046101 20.323884c-270.382057 0-489.62848 219.247446-489.62848 489.630527 0 270.381034 219.246423 489.62848 489.62848 489.62848 270.38308 0 489.630527-219.247446 489.630527-489.62848C1003.675604 239.569284 784.428158 20.323884 514.046101 20.323884zM673.581584 668.230204c-10.067286 25.832342-22.844288 46.778396-37.268812 62.83714-14.95562 15.233959-30.999015 28.834722-48.14758 40.256866-16.231683 10.394744-30.578436 18.197454-42.813085 22.952758 20.231787-26.63973 30.357402-53.841256 30.357402-81.862449 0-11.156084-2.178619-23.124673-5.990434-34.82618-4.074805-11.967566-8.43409-22.302959-13.598716-30.191626-4.888334-8.156774-10.878768-16.324804-17.402345-23.934109l-13.600763-16.045441-5.443989-5.443989-6.255471 5.443989c-3.811816 3.797489-8.698103 9.243525-13.600763 16.045441-5.164626 6.800893-10.611685 14.953573-16.32378 23.387663-5.434779 8.979512-10.06831 19.048845-13.867846 31.015388-4.355191 11.965519-5.989411 23.38971-5.989411 34.81083l0 17.152658 6.254447 18.222013c4.358261 11.422144 8.432043 21.75549 13.601786 29.646204 4.491291 7.664563 10.015098 15.329127 16.061814 23.23826-5.02955-0.781806-10.486842-1.956561-16.385179-3.497661-11.42112-3.815909-25.022906-10.337439-41.068348-20.136619-16.32378-10.596336-31.558763-22.844288-45.158503-37.799908-13.601786-15.779382-26.39209-37.004799-37.814234-64.206324s-18.766412-58.477856-22.034852-93.290733c-3.798513-35.916001 0-73.172533 10.893094-112.353904 11.142781-38.622646 27.201525-75.069743 48.412616-109.071138 21.48943-34.001395 45.969984-66.370617 73.170486-96.294137 27.201525-29.647227 56.038294-55.492872 87.316671-78.0711-4.342912 23.668049-5.976108 45.968961-4.342912 66.36857 1.354857 20.401656 4.621251 37.815257 10.05296 51.695383 5.712095 14.143115 12.511965 28.009937 20.946055 41.611723 8.43409 14.145162 17.414625 26.391067 26.656103 37.535895 9.525957 11.155061 18.769482 23.667026 28.29237 37.814234 9.257851 14.410198 18.222013 28.554336 25.846668 42.435485 7.611352 14.410198 13.600763 31.55774 18.22406 51.958372 4.357238 20.402679 6.79987 42.423205 6.79987 66.370617C689.358919 613.281731 683.91493 641.838114 673.581584 668.230204z" p-id="12405" fill="#ffffff"></path></svg>