<?xml version="1.0" standalone="no"?><!DOCTYPE svg PUBLIC "-//W3C//DTD SVG 1.1//EN" "http://www.w3.org/Graphics/SVG/1.1/DTD/svg11.dtd"><svg t="1721655542998" class="icon" viewBox="0 0 1024 1024" version="1.1" xmlns="http://www.w3.org/2000/svg" p-id="11842" xmlns:xlink="http://www.w3.org/1999/xlink" width="200" height="200"><path d="M159.744 368.64c-12.288 24.576-36.864 40.96-65.536 40.96h-4.096c-36.864 0-69.632 32.768-69.632 69.632v65.536c0 36.864 32.768 69.632 69.632 69.632h8.192c24.576 0 49.152 16.384 61.44 40.96 12.288 24.576 8.192 57.344-12.288 77.824l-4.096 4.096c-24.576 28.672-24.576 69.632 0 94.208l45.056 45.056c28.672 28.672 69.632 28.672 98.304 0l4.096-4.096c20.48-20.48 49.152-24.576 73.728-16.384 0 0 4.096 0 4.096 4.096 24.576 12.288 40.96 32.768 40.96 61.44v8.192c0 36.864 28.672 69.632 69.632 69.632h65.536c36.864 0 69.632-28.672 69.632-69.632v-8.192c0-28.672 16.384-53.248 40.96-61.44 0 0 4.096 0 4.096-4.096 24.576-12.288 53.248-4.096 73.728 16.384l4.096 4.096c28.672 28.672 69.632 28.672 98.304 0l45.056-45.056c24.576-24.576 24.576-69.632 0-98.304l-4.096-4.096c-20.48-20.48-24.576-49.152-12.288-77.824 12.288-24.576 36.864-45.056 65.536-45.056h4.096c36.864 0 69.632-28.672 69.632-69.632v-65.536c0-36.864-28.672-69.632-69.632-69.632h-8.192c-24.576 8.192-49.152-8.192-61.44-32.768-12.288-24.576-8.192-57.344 12.288-77.824l4.096-4.096c24.576-28.672 24.576-69.632 0-94.208l-45.056-45.056c-28.672-28.672-69.632-24.576-98.304 0l-4.096 4.096c-20.48 20.48-49.152 24.576-73.728 12.288H655.36c-24.576-12.288-40.96-36.864-40.96-61.44v-12.288c0-36.864-28.672-69.632-69.632-69.632h-65.536c-36.864 0-69.632 28.672-69.632 69.632v8.192c0 24.576-16.384 49.152-40.96 61.44h-4.096c-24.576 12.288-57.344 4.096-73.728-12.288l-8.192-4.096c-28.672-28.672-69.632-28.672-98.304 0L139.264 188.416c-24.576 24.576-24.576 69.632 4.096 98.304l4.096 4.096c20.48 20.48 24.576 49.152 12.288 77.824 0-4.096 0 0 0 0z m229.376 118.784L491.52 311.296c12.288-20.48 36.864-24.576 57.344-16.384 20.48 12.288 24.576 36.864 12.288 57.344l-65.536 110.592h102.4c16.384 0 28.672 8.192 36.864 20.48 8.192 12.288 4.096 28.672-4.096 40.96l-126.976 184.32c-12.288 20.48-36.864 24.576-57.344 12.288-20.48-12.288-24.576-36.864-12.288-57.344l81.92-118.784h-94.208c-16.384 0-28.672-8.192-36.864-20.48s0-24.576 4.096-36.864z" p-id="11843" fill="#ffffff"></path></svg>