<?xml version="1.0" standalone="no"?><!DOCTYPE svg PUBLIC "-//W3C//DTD SVG 1.1//EN" "http://www.w3.org/Graphics/SVG/1.1/DTD/svg11.dtd"><svg t="1721655447806" class="icon" viewBox="0 0 1024 1024" version="1.1" xmlns="http://www.w3.org/2000/svg" p-id="4861" xmlns:xlink="http://www.w3.org/1999/xlink" width="200" height="200"><path d="M513.282714 959.381283c-169.790034 0-307.881113-137.39216-307.881112-306.247915 0-168.856779 138.091078-306.211077 307.881112-306.211077 169.750125 0 307.880089 137.354298 307.88009 306.211077 0 168.856779-138.129964 306.247916-307.88009 306.247915z m0-580.645426c-152.114466 0-275.873118 123.097596-275.873118 274.397511 0 151.298891 123.758652 274.395464 275.873118 274.395463 152.113443 0 275.873118-123.097596 275.873118-274.395463 0-151.299915-123.759675-274.39751-275.873118-274.397511z" p-id="4862" fill="#ffffff"></path><path d="M513.282714 841.565994c-104.491843 0-189.44263-84.524069-189.44263-188.432626 0-103.871719 84.951811-188.395788 189.44263-188.395788 104.414071 0 189.405791 84.524069 189.405791 188.395788 0 103.908558-84.99172 188.432627-189.405791 188.432626z m0-366.223892c-98.587366 0-178.76136 79.787184-178.761359 177.791266 0 98.04399 80.173994 177.827081 178.761359 177.827081 98.549503 0 178.760336-79.784114 178.760337-177.827081 0-98.003058-80.211856-177.791266-178.760337-177.791266zM395.777487 394.971633h-10.68127V70.972425h10.68127v323.999208zM641.429303 394.971633h-10.68127V70.972425h10.68127v323.999208z" p-id="4863" fill="#ffffff"></path><path d="M742.774479 470.874347l-22.530133-22.646789 193.522552-190.530405V154.2542c0-31.931247-26.104541-57.879222-58.189284-57.879222h-684.591846c-32.084743 0-58.227146 25.947975-58.227146 57.879222v103.44193l193.521528 190.530404-22.491247 22.64679L80.750627 271.019577V154.2542c0-49.488111 40.475853-89.731674 90.235141-89.731674h684.59287c49.721425 0 90.197278 40.24254 90.197278 89.731674v116.765377L742.774479 470.874347z" p-id="4864" fill="#ffffff"></path></svg>