<?xml version="1.0" standalone="no"?><!DOCTYPE svg PUBLIC "-//W3C//DTD SVG 1.1//EN" "http://www.w3.org/Graphics/SVG/1.1/DTD/svg11.dtd"><svg t="1721655340241" class="icon" viewBox="0 0 1109 1024" version="1.1" xmlns="http://www.w3.org/2000/svg" p-id="4434" xmlns:xlink="http://www.w3.org/1999/xlink" width="216.6015625" height="200"><path d="M289.962667 512c-4.181333 0-8.362667-0.469333-12.544-1.322667C108.885333 473.984 0 376.618667 0 262.570667 0 115.285333 182.741333 0 416.128 0c172.458667 0 324.096 64.085333 386.432 163.413333 16.085333 25.6 7.466667 58.837333-19.2 74.325334-26.752 15.445333-61.269333 7.168-77.397333-18.432-40.96-65.28-160.256-110.976-289.834667-110.976-178.816 0-303.317333 81.365333-303.317333 154.368 0 59.605333 77.909333 118.186667 189.44 142.421333 30.378667 6.613333 49.408 35.584 42.538666 64.853333-5.717333 24.96-29.013333 42.026667-54.826666 42.026667z" fill="#ffffff" p-id="4435"></path><path d="M285.994667 768c-4.096 0-8.234667-0.512-12.373334-1.365333C107.392 729.514667 0 631.04 0 515.626667V268.074667C0 237.866667 24.917333 213.333333 55.594667 213.333333c30.634667 0 55.552 24.533333 55.552 54.741334v247.552c0 60.288 76.842667 119.594667 186.88 144.128 29.909333 6.656 48.682667 36.010667 41.941333 65.578666-5.632 25.386667-28.672 42.666667-53.973333 42.666667z" fill="#ffffff" p-id="4436"></path><path d="M321.749333 1024c-2.730667 0-5.589333-0.256-8.490666-0.64C128.853333 994.688 0 885.76 0 758.613333v-253.568c0-30.933333 24.832-56.064 55.424-56.064s55.424 25.130667 55.424 56.064v253.568c0 68.309333 94.208 134.485333 219.136 153.941334 30.336 4.693333 51.072 33.322667 46.464 64A55.466667 55.466667 0 0 1 321.706667 1024z m425.642667-222.506667c-202.965333 0-361.984-110.506667-361.984-251.392C385.408 409.045333 544.426667 298.666667 747.392 298.666667 950.314667 298.666667 1109.333333 409.173333 1109.333333 550.101333s-159.018667 251.392-361.941333 251.392z m0-390.698666c-147.925333 0-251.008 73.386667-251.008 139.306666 0 65.792 103.082667 139.136 251.008 139.136 147.882667 0 250.965333-73.386667 250.965333-139.136 0-65.92-103.082667-139.306667-250.965333-139.306666z" fill="#ffffff" p-id="4437"></path><path d="M746.794667 1024C543.36 1024 384 918.613333 384 784.128v-218.624C384 535.978667 408.874667 512 439.552 512c30.634667 0 55.552 23.978667 55.552 53.504v218.624c0 62.762667 103.338667 132.778667 251.562667 132.778667 148.224 0 251.562667-69.973333 251.562666-132.778667v-218.624c0-29.525333 24.917333-53.504 55.552-53.504 30.677333 0 55.552 23.978667 55.552 53.504v218.624C1109.589333 918.613333 950.186667 1024 746.794667 1024z" fill="#ffffff" p-id="4438"></path></svg>