<?xml version="1.0" standalone="no"?><!DOCTYPE svg PUBLIC "-//W3C//DTD SVG 1.1//EN" "http://www.w3.org/Graphics/SVG/1.1/DTD/svg11.dtd"><svg t="1721655312469" class="icon" viewBox="0 0 1024 1024" version="1.1" xmlns="http://www.w3.org/2000/svg" p-id="4257" xmlns:xlink="http://www.w3.org/1999/xlink" width="200" height="200"><path d="M405.845333 371.131733c119.9104 0 244.6336-26.350933 319.488-76.663466v91.579733h69.4272V185.582933c0-120.490667-200.328533-185.582933-388.778666-185.582933C217.4976 0 17.066667 65.058133 17.066667 185.582933v547.089067c0 120.5248 200.2944 185.582933 388.778666 185.582933v-69.290666c-197.973333 0-319.488-67.754667-319.488-116.292267v-164.4544c74.888533 50.176 199.4752 76.663467 319.488 76.663467V575.488c-197.973333 0-319.488-67.754667-319.488-116.292267V294.570667c74.888533 50.176 199.5776 76.526933 319.488 76.526933z m0-301.841066c197.973333 0 319.488 67.754667 319.488 116.292266s-121.514667 116.292267-319.488 116.292267c-197.973333 0-319.488-67.754667-319.488-116.292267S207.9744 69.290667 405.845333 69.290667z m310.852267 339.831466c-172.202667 0-262.212267 66.218667-262.212267 131.652267v351.573333c0 65.399467 90.112 131.652267 262.212267 131.652267 170.871467 0 260.778667-65.297067 262.178133-130.2528h0.136534v-352.938667c-0.136533-65.4336-90.112-131.6864-262.314667-131.6864z m0 69.290667c127.2832 0 192.9216 43.7248 192.9216 62.3616s-65.6384 62.3616-192.9216 62.3616c-127.317333 0-192.9216-43.690667-192.9216-62.3616 0-18.6368 65.6384-62.3616 192.9216-62.3616z m0 476.296533c-127.317333 0-192.9216-43.690667-192.9216-62.3616v-83.933866c43.9296 23.893333 108.544 39.867733 192.9216 39.867733s148.821333-15.940267 192.9216-39.867733v83.968c0 18.602667-65.6384 62.327467-192.9216 62.327466z m0-175.8208c-127.317333 0-192.9216-43.758933-192.9216-62.395733v-83.933867c43.9296 23.893333 108.544 39.867733 192.9216 39.867734s148.821333-15.940267 192.9216-39.867734v83.968c0 18.602667-65.6384 62.3616-192.9216 62.3616z" fill="white"  p-id="4258"></path></svg>