<?xml version="1.0" standalone="no"?><!DOCTYPE svg PUBLIC "-//W3C//DTD SVG 1.1//EN" "http://www.w3.org/Graphics/SVG/1.1/DTD/svg11.dtd"><svg t="1721655479973" class="icon" viewBox="0 0 1024 1024" version="1.1" xmlns="http://www.w3.org/2000/svg" p-id="7584" xmlns:xlink="http://www.w3.org/1999/xlink" width="200" height="200"><path d="M42.837 234.24c0 83.456 86.614 160.597 227.243 202.24 140.63 41.813 313.941 41.813 454.57 0 140.63-41.643 227.243-118.784 227.243-202.24 0-129.024-203.52-233.557-454.57-233.557C246.357 0.683 42.837 105.216 42.837 234.24z" p-id="7585" fill="#ffffff"></path><path d="M497.323 538.112c-185.6 0-345.259-57.173-415.83-139.179-24.917 28.843-38.656 60.843-38.656 94.379 0 129.024 203.52 233.643 454.486 233.643 251.05 0 454.57-104.619 454.57-233.643 0-33.536-13.824-65.536-38.656-94.379-70.57 81.92-230.229 139.179-415.914 139.179z" p-id="7586" fill="#ffffff"></path><path d="M497.323 803.67c-188.075 0-349.44-58.71-418.56-142.507-23.126 28.074-35.926 58.88-35.926 91.306 0 128.939 203.52 233.558 454.486 233.558 251.05 0 454.57-104.619 454.57-233.643 0-32.341-12.8-63.147-35.925-91.136-69.12 83.627-230.57 142.421-418.645 142.421z" p-id="7587" fill="#ffffff"></path></svg>