<?xml version="1.0" standalone="no"?><!DOCTYPE svg PUBLIC "-//W3C//DTD SVG 1.1//EN" "http://www.w3.org/Graphics/SVG/1.1/DTD/svg11.dtd"><svg t="1721656725319" class="icon" viewBox="0 0 1024 1024" version="1.1" xmlns="http://www.w3.org/2000/svg" p-id="25607" xmlns:xlink="http://www.w3.org/1999/xlink" width="200" height="200"><path d="M512 901.12a389.12 389.12 0 1 1 389.12-389.12 389.5296 389.5296 0 0 1-389.12 389.12z m0-737.28a348.16 348.16 0 1 0 348.16 348.16A348.5696 348.5696 0 0 0 512 163.84zM743.13728 116.69504l28.95872-28.95872 163.92192 163.92192-28.95872 28.95872zM88.064 251.82208l163.92192-163.96288 28.95872 28.95872-163.96288 163.96288z" p-id="25608"></path><path d="M491.52 225.28h40.96v81.92h-40.96zM225.28 491.52h81.92v40.96h-81.92zM491.52 716.8h40.96v81.92h-40.96zM716.8 491.52h81.92v40.96h-81.92zM532.48 634.88h-40.96v-130.2528l168.3456-210.1248 31.9488 25.3952L532.48 519.3728v115.5072z" p-id="25609"></path></svg>