<?xml version="1.0" standalone="no"?><!DOCTYPE svg PUBLIC "-//W3C//DTD SVG 1.1//EN" "http://www.w3.org/Graphics/SVG/1.1/DTD/svg11.dtd"><svg t="1721656747852" class="icon" viewBox="0 0 1024 1024" version="1.1" xmlns="http://www.w3.org/2000/svg" p-id="26643" xmlns:xlink="http://www.w3.org/1999/xlink" width="200" height="200"><path d="M547.882667 434.56l100.352-119.552a21.333333 21.333333 0 0 1 32.682666 27.434667l-100.010666 119.168a85.333333 85.333333 0 1 1-32.981334-27.050667z m347.52 98.773333H832a21.333333 21.333333 0 0 1 0-42.666666h63.402667A384.042667 384.042667 0 0 0 533.333333 128.597333V192a21.333333 21.333333 0 0 1-42.666666 0V128.597333A384.042667 384.042667 0 0 0 128.597333 490.666667H192a21.333333 21.333333 0 0 1 0 42.666666H128.597333a384.042667 384.042667 0 0 0 362.069334 362.069334V832a21.333333 21.333333 0 0 1 42.666666 0v63.402667a384.042667 384.042667 0 0 0 362.069334-362.069334zM512 938.666667C276.352 938.666667 85.333333 747.648 85.333333 512S276.352 85.333333 512 85.333333s426.666667 191.018667 426.666667 426.666667-191.018667 426.666667-426.666667 426.666667z m0-384a42.666667 42.666667 0 1 0 0-85.333334 42.666667 42.666667 0 0 0 0 85.333334z" fill="#ffffff" p-id="26644"></path></svg>