<?xml version="1.0" standalone="no"?><!DOCTYPE svg PUBLIC "-//W3C//DTD SVG 1.1//EN" "http://www.w3.org/Graphics/SVG/1.1/DTD/svg11.dtd"><svg t="1721656712539" class="icon" viewBox="0 0 1024 1024" version="1.1" xmlns="http://www.w3.org/2000/svg" p-id="24563" xmlns:xlink="http://www.w3.org/1999/xlink" width="200" height="200"><path d="M256 512q0-18.005333 11.989333-29.994667t29.994667-11.989333 31.018667 11.989333 13.013333 29.994667-13.013333 29.994667-31.018667 11.989333-29.994667-11.989333-11.989333-29.994667zM768 512q0 18.005333-11.989333 29.994667t-29.994667 11.989333-31.018667-11.989333-13.013333-29.994667 13.013333-29.994667 31.018667-11.989333 29.994667 11.989333 11.989333 29.994667zM470.016 128l41.984 0q160 0 272 112t112 272-112 272-272 112-272-112-112-272q0-192 153.984-306.005333l0-2.005333 290.005333 290.005333-59.989333 59.989333-232.021333-230.016q-66.005333 82.005333-66.005333 187.989333 0 123.989333 86.997333 210.986667t210.986667 86.997333 210.986667-86.997333 86.997333-210.986667q0-112-73.984-196.010667t-182.016-100.010667l0 82.005333-84.010667 0 0-169.984zM470.016 726.016q0-18.005333 11.989333-31.018667t29.994667-13.013333 29.994667 13.013333 11.989333 31.018667-11.989333 29.994667-29.994667 11.989333-29.994667-11.989333-11.989333-29.994667z" fill="#ffffff" p-id="24564"></path></svg>