<?xml version="1.0" standalone="no"?><!DOCTYPE svg PUBLIC "-//W3C//DTD SVG 1.1//EN" "http://www.w3.org/Graphics/SVG/1.1/DTD/svg11.dtd"><svg t="1721656683343" class="icon" viewBox="0 0 1024 1024" version="1.1" xmlns="http://www.w3.org/2000/svg" p-id="23303" xmlns:xlink="http://www.w3.org/1999/xlink" width="200" height="200"><path d="M555.2 174.4V84.8H640c25.6 0 43.2-17.6 43.2-43.2S665.6 0 640 0H384c-25.6 0-43.2 17.6-43.2 43.2s17.6 43.2 43.2 43.2h84.8V176c-212.8 20.8-384 204.8-384 422.4C84.8 832 276.8 1024 512 1024s427.2-192 427.2-427.2c0-220.8-171.2-400-384-422.4zM512 939.2c-187.2 0-340.8-153.6-340.8-340.8S324.8 256 512 256s340.8 153.6 340.8 340.8S699.2 939.2 512 939.2z" p-id="23304" fill="#ffffff"></path><path d="M724.8 555.2H555.2V384c0-25.6-17.6-43.2-43.2-43.2s-43.2 17.6-43.2 43.2v171.2h-43.2c-25.6 0-43.2 17.6-43.2 43.2s17.6 43.2 43.2 43.2h43.2v43.2c0 25.6 17.6 43.2 43.2 43.2s43.2-17.6 43.2-43.2V640h171.2c25.6 0 43.2-17.6 43.2-43.2-1.6-25.6-19.2-41.6-44.8-41.6z" p-id="23305" fill="#ffffff"></path></svg>