<?xml version="1.0" standalone="no"?><!DOCTYPE svg PUBLIC "-//W3C//DTD SVG 1.1//EN" "http://www.w3.org/Graphics/SVG/1.1/DTD/svg11.dtd"><svg t="1721655687345" class="icon" viewBox="0 0 1024 1024" version="1.1" xmlns="http://www.w3.org/2000/svg" p-id="18944" xmlns:xlink="http://www.w3.org/1999/xlink" width="200" height="200"><path d="M409.6 204.8a307.2 307.2 0 0 0-307.2 307.2c0 169.6768 137.5232 307.2 307.2 307.2s307.2-137.5232 307.2-307.2a307.2 307.2 0 0 0-307.2-307.2z m34.133333 444.2112V682.666667h-68.266666v-33.3824c-47.581867-9.045333-76.731733-37.6832-77.6192-79.872h64.7168c1.672533 19.421867 21.060267 31.812267 49.152 31.812266 25.326933 0 42.734933-12.219733 42.734933-29.7984 0-14.779733-11.6736-22.7328-42.154667-28.842666l-35.1232-7.031467c-48.810667-9.250133-73.966933-35.874133-73.966933-77.824 0-42.222933 27.716267-72.328533 72.2944-82.397867V341.333333h68.266667v34.235734c43.281067 10.171733 71.543467 39.424 72.430933 79.018666h-62.6688c-1.467733-18.8416-19.387733-31.982933-43.281067-31.982933s-39.560533 11.298133-39.560533 29.047467c0 14.609067 11.844267 23.108267 39.936 28.637866l34.4064 6.656c52.701867 10.171733 76.356267 34.030933 76.356267 76.356267-0.034133 45.602133-28.910933 76.049067-77.653334 85.7088z" p-id="18945" fill="#ffffff"></path><path d="M778.3424 442.402133c4.266667 22.562133 6.724267 45.7728 6.724267 69.597867 0 62.293333-15.4624 120.9344-42.427734 172.680533 11.912533 12.424533 17.646933 28.603733 17.646934 49.288534 0 45.602133-28.8768 76.049067-77.6192 85.7088V853.333333h-68.266667v-27.0336a372.292267 372.292267 0 0 1-150.8352 56.832A271.803733 271.803733 0 0 0 648.533333 955.733333a273.066667 273.066667 0 0 0 129.809067-513.3312zM648.533333 204.6976V170.666667h68.266667v34.235733c43.281067 10.171733 71.543467 39.424 72.430933 79.018667h-62.6688c-1.467733-18.8416-19.387733-31.982933-43.281066-31.982934-1.092267 0-1.877333 0.3072-2.935467 0.375467a376.968533 376.968533 0 0 1 51.2 67.242667c35.259733 9.454933 54.6816 26.794667 60.654933 53.828266a342.016 342.016 0 0 1 127.522134 102.638934A269.858133 269.858133 0 0 0 955.733333 341.333333a273.066667 273.066667 0 0 0-273.066666-273.066666c-74.103467 0-140.970667 29.832533-190.122667 77.755733 51.4048 11.605333 98.645333 33.792 139.639467 64.068267 5.256533-1.979733 10.478933-4.061867 16.349866-5.393067z" p-id="18946" fill="#ffffff"></path></svg>