<?xml version="1.0" standalone="no"?><!DOCTYPE svg PUBLIC "-//W3C//DTD SVG 1.1//EN" "http://www.w3.org/Graphics/SVG/1.1/DTD/svg11.dtd"><svg t="1721655711877" class="icon" viewBox="0 0 1024 1024" version="1.1" xmlns="http://www.w3.org/2000/svg" p-id="21104" xmlns:xlink="http://www.w3.org/1999/xlink" width="200" height="200"><path d="M512 0C228.430769 0 0 232.369231 0 515.938462 0 795.569231 228.430769 1024 512 1024s512-228.430769 512-508.061538C1024 232.369231 795.569231 0 512 0z m0 937.353846C275.692308 937.353846 86.646154 748.307692 86.646154 515.938462 86.646154 279.630769 275.692308 86.646154 512 86.646154c236.307692 0 425.353846 192.984615 425.353846 429.292308C937.353846 748.307692 748.307692 937.353846 512 937.353846z" fill="#ffffff" p-id="21105"></path><path d="M567.138462 468.676923h-11.815385V393.846154h70.892308c23.630769 0 43.323077-19.692308 43.323077-43.323077 0-23.630769-19.692308-39.384615-43.323077-43.323077h-70.892308v-15.753846c0-23.630769-19.692308-43.323077-43.323077-39.384616-23.630769 0-39.384615 19.692308-39.384615 39.384616v19.692308h-15.753847c-66.953846 0-122.092308 55.138462-122.092307 122.092307 0 66.953846 55.138462 122.092308 122.092307 122.092308h15.753847V630.153846h-70.892308c-23.630769 0-43.323077 19.692308-43.323077 43.323077 0 23.630769 19.692308 43.323077 43.323077 43.323077H472.615385v19.692308c0 23.630769 19.692308 43.323077 43.323077 43.323077s43.323077-19.692308 43.323076-43.323077v-19.692308h15.753847c66.953846 0 122.092308-55.138462 122.092307-122.092308-7.876923-70.892308-63.015385-126.030769-129.96923-126.030769z m-110.276924 0c-19.692308 0-35.446154-15.753846-35.446153-35.446154s15.753846-35.446154 35.446153-35.446154h15.753847V472.615385c-3.938462-3.938462-15.753846-3.938462-15.753847-3.938462z m110.276924 161.476923H551.384615v-74.830769h15.753847c19.692308 0 35.446154 15.753846 35.446153 35.446154 3.938462 19.692308-11.815385 39.384615-35.446153 39.384615z m212.676923-303.261538c-19.692308 11.815385-27.569231 35.446154-19.692308 59.076923 19.692308 39.384615 31.507692 82.707692 31.507692 129.969231 0 43.323077-11.815385 86.646154-31.507692 129.96923-11.815385 19.692308-3.938462 47.261538 19.692308 59.076923s47.261538 3.938462 59.076923-19.692307c27.569231-51.2 39.384615-110.276923 39.384615-169.353846s-15.753846-118.153846-39.384615-169.353847c-11.815385-23.630769-39.384615-31.507692-59.076923-19.692307z m-535.63077 0c-19.692308-11.815385-47.261538-3.938462-55.138461 15.753846-27.569231 51.2-39.384615 110.276923-39.384616 169.353846s15.753846 118.153846 39.384616 169.353846c7.876923 19.692308 35.446154 27.569231 55.138461 15.753846 19.692308-11.815385 27.569231-35.446154 19.692308-59.076923-19.692308-39.384615-31.507692-82.707692-31.507692-129.969231 0-43.323077 11.815385-86.646154 31.507692-129.96923 7.876923-15.753846 0-39.384615-19.692308-51.2z" fill="#ffffff" p-id="21106"></path></svg>