<?xml version="1.0" standalone="no"?><!DOCTYPE svg PUBLIC "-//W3C//DTD SVG 1.1//EN" "http://www.w3.org/Graphics/SVG/1.1/DTD/svg11.dtd"><svg t="1721655678092" class="icon" viewBox="0 0 1024 1024" version="1.1" xmlns="http://www.w3.org/2000/svg" p-id="18783" xmlns:xlink="http://www.w3.org/1999/xlink" width="200" height="200"><path d="M512 847.448276c-253.510621 0-459.034483-52.294621-459.034483-105.931035v123.515587C53.106759 918.633931 258.56 971.034483 512 971.034483s458.893241-52.400552 459.034483-106.001655V741.517241c0 53.636414-205.523862 105.931034-459.034483 105.931035" fill="#E4AF18" p-id="18784"></path><path d="M459.034483 653.241379c-253.510621 0-459.034483-52.294621-459.034483-105.931034v123.515586C0.141241 724.427034 205.594483 776.827586 459.034483 776.827586s458.893241-52.400552 459.034483-106.001655V547.310345c0 53.636414-205.523862 105.931034-459.034483 105.931034" fill="#F4BF1A" p-id="18785"></path><path d="M564.965517 459.034483c-253.510621 0-459.034483-52.294621-459.034483-105.931035v123.515586C106.072276 530.220138 311.525517 582.62069 564.965517 582.62069s458.893241-52.400552 459.034483-106.001656V353.103448c0 53.636414-205.523862 105.931034-459.034483 105.931035" fill="#E4AF18" p-id="18786"></path><path d="M918.068966 143.536552C918.068966 197.15531 712.545103 247.172414 459.034483 247.172414S0 197.15531 0 143.536552C0 89.900138 205.523862 52.965517 459.034483 52.965517s459.034483 36.934621 459.034483 90.571035" fill="#FFD949" p-id="18787"></path><path d="M459.034483 247.172414C205.523862 247.172414 0 194.877793 0 141.241379v123.515587C0.141241 318.358069 205.594483 370.758621 459.034483 370.758621s458.893241-52.400552 459.034483-106.001655V141.241379c0 53.636414-205.523862 105.931034-459.034483 105.931035" fill="#F4BF1A" p-id="18788"></path><path d="M70.62069 195.513379v123.497931c10.734345 3.954759 22.49269 7.768276 35.310344 11.405242v-123.515586a495.439448 495.439448 0 0 1-35.310344-11.387587M812.137931 206.900966v123.515586a486.311724 486.311724 0 0 0 35.310345-11.405242v-123.497931c-10.734345 3.954759-22.49269 7.750621-35.310345 11.387587M158.896552 219.718621v123.533241c11.29931 2.348138 23.07531 4.57269 35.310345 6.673655v-123.533241a1032.862897 1032.862897 0 0 1-35.310345-6.673655M723.862069 226.392276v123.550896a1076.788966 1076.788966 0 0 0 35.310345-6.69131v-123.533241c-11.29931 2.348138-23.07531 4.57269-35.310345 6.673655M247.172414 234.266483v123.550896c11.511172 1.483034 23.251862 2.860138 35.310345 4.096v-123.550896a1447.035586 1447.035586 0 0 1-35.310345-4.096M635.586207 238.380138V361.931034a1539.813517 1539.813517 0 0 0 35.310345-4.096v-123.568551c-11.511172 1.50069-23.251862 2.877793-35.310345 4.113655M335.448276 242.917517v123.568552c11.599448 0.812138 23.357793 1.536 35.310345 2.118621v-123.586207a1667.707586 1667.707586 0 0 1-35.310345-2.100966M547.310345 245.018483v123.586207a1666.683586 1666.683586 0 0 0 35.310345-2.118621v-123.568552a1667.707586 1667.707586 0 0 1-35.310345 2.100966M459.034483 247.172414c-5.914483 0-11.793655-0.052966-17.655173-0.105931v123.586207c5.861517 0.052966 11.74069 0.105931 17.655173 0.105931s11.793655-0.052966 17.655172-0.105931v-123.586207c-5.861517 0.052966-11.74069 0.105931-17.655172 0.105931" fill="#DCA815" p-id="18789"></path><path d="M176.551724 407.375448v123.497931c10.734345 3.954759 22.49269 7.768276 35.310345 11.405242v-123.515587a495.439448 495.439448 0 0 1-35.310345-11.387586M918.068966 418.763034v123.515587a486.311724 486.311724 0 0 0 35.310344-11.405242v-123.497931c-10.734345 3.954759-22.49269 7.750621-35.310344 11.387586M264.827586 431.58069v123.533241c11.29931 2.348138 23.07531 4.57269 35.310345 6.673655v-123.533241a1032.862897 1032.862897 0 0 1-35.310345-6.673655M829.793103 438.254345v123.550896a1076.788966 1076.788966 0 0 0 35.310345-6.69131v-123.533241c-11.29931 2.348138-23.07531 4.57269-35.310345 6.673655M353.103448 446.146207v123.550896c11.511172 1.483034 23.251862 2.860138 35.310345 4.096v-123.550896a1539.813517 1539.813517 0 0 1-35.310345-4.096M741.517241 450.224552V573.793103a1539.813517 1539.813517 0 0 0 35.310345-4.096V446.146207c-11.511172 1.483034-23.251862 2.860138-35.310345 4.078345M441.37931 454.779586v123.568552c11.599448 0.812138 23.357793 1.536 35.310345 2.118621v-123.586207a1667.707586 1667.707586 0 0 1-35.310345-2.100966M653.241379 456.880552v123.586207a1666.683586 1666.683586 0 0 0 35.310345-2.118621v-123.568552a1667.707586 1667.707586 0 0 1-35.310345 2.100966M564.965517 459.034483c-5.914483 0-11.793655-0.052966-17.655172-0.105931v123.586207c5.861517 0.052966 11.74069 0.105931 17.655172 0.105931s11.793655-0.052966 17.655173-0.105931v-123.586207c-5.861517 0.052966-11.74069 0.105931-17.655173 0.105931" fill="#C49214" p-id="18790"></path><path d="M70.62069 601.582345v123.497931c10.734345 3.954759 22.49269 7.750621 35.310344 11.405241v-123.515586a495.439448 495.439448 0 0 1-35.310344-11.387586M812.137931 612.969931v123.515586a486.311724 486.311724 0 0 0 35.310345-11.405241v-123.497931c-10.734345 3.954759-22.49269 7.750621-35.310345 11.387586M158.896552 625.787586v123.533242c11.29931 2.348138 23.07531 4.57269 35.310345 6.673655v-123.533242a1032.862897 1032.862897 0 0 1-35.310345-6.673655M723.862069 632.461241v123.550897a1076.788966 1076.788966 0 0 0 35.310345-6.69131v-123.533242c-11.29931 2.348138-23.07531 4.57269-35.310345 6.673655M247.172414 640.353103v123.550897c11.511172 1.483034 23.251862 2.860138 35.310345 4.096v-123.550897a1539.813517 1539.813517 0 0 1-35.310345-4.096M635.586207 644.431448V768a1539.813517 1539.813517 0 0 0 35.310345-4.096V640.353103c-11.511172 1.483034-23.251862 2.860138-35.310345 4.078345M335.448276 648.986483v123.568551c11.599448 0.812138 23.357793 1.536 35.310345 2.118621v-123.586207a1667.707586 1667.707586 0 0 1-35.310345-2.100965M547.310345 651.087448v123.586207a1666.683586 1666.683586 0 0 0 35.310345-2.118621v-123.568551a1667.707586 1667.707586 0 0 1-35.310345 2.100965M459.034483 653.241379c-5.914483 0-11.793655-0.052966-17.655173-0.105931v123.586207c5.861517 0.052966 11.74069 0.105931 17.655173 0.105931s11.793655-0.052966 17.655172-0.105931v-123.586207c-5.861517 0.052966-11.74069 0.105931-17.655172 0.105931" fill="#DCA815" p-id="18791"></path><path d="M123.586207 795.789241v123.497931c10.734345 3.954759 22.49269 7.750621 35.310345 11.405242v-123.515586a495.439448 495.439448 0 0 1-35.310345-11.387587M865.103448 807.176828v123.515586a486.311724 486.311724 0 0 0 35.310345-11.405242v-123.497931c-10.734345 3.954759-22.49269 7.750621-35.310345 11.387587M211.862069 819.994483v123.533241c11.29931 2.348138 23.07531 4.57269 35.310345 6.673655v-123.533241a1032.862897 1032.862897 0 0 1-35.310345-6.673655M776.827586 826.668138v123.550896a1076.788966 1076.788966 0 0 0 35.310345-6.69131v-123.533241c-11.29931 2.348138-23.07531 4.57269-35.310345 6.673655M300.137931 834.56v123.550897c11.511172 1.483034 23.251862 2.860138 35.310345 4.096v-123.550897a1539.813517 1539.813517 0 0 1-35.310345-4.096M688.551724 838.638345V962.206897a1539.813517 1539.813517 0 0 0 35.310345-4.096V834.56c-11.511172 1.483034-23.251862 2.860138-35.310345 4.078345M388.413793 843.193379v123.568552c11.599448 0.812138 23.357793 1.536 35.310345 2.118621v-123.586207a1667.707586 1667.707586 0 0 1-35.310345-2.100966M600.275862 845.294345v123.586207a1666.683586 1666.683586 0 0 0 35.310345-2.118621v-123.568552a1667.707586 1667.707586 0 0 1-35.310345 2.100966M512 847.448276c-5.914483 0-11.793655-0.052966-17.655172-0.105931v123.586207c5.861517 0.052966 11.74069 0.105931 17.655172 0.105931s11.793655-0.052966 17.655172-0.105931v-123.586207c-5.861517 0.052966-11.74069 0.105931-17.655172 0.105931" fill="#C49214" p-id="18792"></path><path d="M904.15669 695.119448C854.016 739.222069 673.774345 776.827586 459.034483 776.827586c-167.90069 0-314.668138-23.00469-394.699035-54.113103-7.362207 6.673655-11.369931 13.735724-11.369931 21.097931C52.965517 797.448828 258.489379 847.448276 512 847.448276c253.528276 0 459.034483-49.999448 459.034483-103.635862 0-18.484966-24.452414-35.010207-66.877793-48.692966" fill="#FCC62D" p-id="18793"></path><path d="M564.965517 582.62069c-233.277793 0-425.772138-44.402759-455.044414-93.272276C41.43669 504.86731 0 525.541517 0 549.605517 0 603.224276 205.523862 653.241379 459.034483 653.241379s459.034483-50.017103 459.034483-103.635862c0-2.365793-0.529655-4.678621-1.324138-6.973793C832.54731 566.324966 706.242207 582.62069 564.965517 582.62069" fill="#FFD949" p-id="18794"></path><path d="M900.290207 292.175448C845.364966 334.900966 668.672 370.758621 459.034483 370.758621c-135.379862 0-257.041655-14.971586-341.062621-37.075862-7.785931 6.885517-12.040828 14.124138-12.040828 21.715862C105.931034 409.035034 311.454897 459.034483 564.965517 459.034483s459.034483-49.999448 459.034483-103.635862c0-25.63531-47.015724-47.439448-123.709793-63.223173" fill="#FCC62D" p-id="18795"></path></svg>