<?xml version="1.0" standalone="no"?><!DOCTYPE svg PUBLIC "-//W3C//DTD SVG 1.1//EN" "http://www.w3.org/Graphics/SVG/1.1/DTD/svg11.dtd"><svg t="1721655631109" class="icon" viewBox="0 0 1024 1024" version="1.1" xmlns="http://www.w3.org/2000/svg" p-id="16309" xmlns:xlink="http://www.w3.org/1999/xlink" width="200" height="200"><path d="M469.333333 384v42.666667h85.333334v85.333333H384a21.333333 21.333333 0 0 0 0 42.666667h64a106.666667 106.666667 0 0 1 0 213.333333h21.333333v42.666667H384v-42.666667H277.333333v-85.333333h170.666667a21.333333 21.333333 0 0 0 0-42.666667H384a106.666667 106.666667 0 0 1 0-213.333333V384h85.333333z" fill="#ffffff" p-id="16310"></path><path d="M853.333333 426.666667a255.36 255.36 0 0 1-85.930666 191.36 339.413333 339.413333 0 0 1-29.568 119.808A341.418667 341.418667 0 1 0 286.165333 286.165333 341.418667 341.418667 0 0 0 426.666667 938.666667a341.333333 341.333333 0 1 0-20.693334-682.069334A256 256 0 0 1 853.333333 426.666667z m-170.666666 170.666666a256 256 0 1 1-512 0 256 256 0 0 1 512 0z" fill="#ffffff" p-id="16311"></path></svg>