<?xml version="1.0" standalone="no"?><!DOCTYPE svg PUBLIC "-//W3C//DTD SVG 1.1//EN" "http://www.w3.org/Graphics/SVG/1.1/DTD/svg11.dtd"><svg t="1721655720792" class="icon" viewBox="0 0 1024 1024" version="1.1" xmlns="http://www.w3.org/2000/svg" p-id="21295" xmlns:xlink="http://www.w3.org/1999/xlink" width="200" height="200"><path d="M0 640c0 55.54 36 106.74 96 148.66V660c-37.7-24-70.8-50.72-96-80.76z m512 64c282.66 0 512-128.88 512-288S794.66 128 512 128 0 256.88 0 416s229.34 288 512 288zM160 825.02c54.18 25.78 119.32 45.62 192 57.6V754c-70.78-12-135.62-31.76-192-58z m768-36.36c60.1-42 96-93.12 96-148.66v-60.74c-25.2 30-58.3 56.74-96 80.76z m-256 94c72.68-12 137.82-31.82 192-57.6V696c-56.38 26.24-121.22 46-192 58zM416 762.4v128.18c31.24 3.02 62.98 5.42 96 5.42s64.76-2.4 96-5.42V762.4a954.4 954.4 0 0 1-96 5.6 954.4 954.4 0 0 1-96-5.6z" p-id="21296"></path></svg>