<?xml version="1.0" standalone="no"?><!DOCTYPE svg PUBLIC "-//W3C//DTD SVG 1.1//EN" "http://www.w3.org/Graphics/SVG/1.1/DTD/svg11.dtd"><svg t="1721655698055" class="icon" viewBox="0 0 1066 1024" version="1.1" xmlns="http://www.w3.org/2000/svg" p-id="20017" xmlns:xlink="http://www.w3.org/1999/xlink" width="208.203125" height="200"><path d="M1002.666667 512c0 259.2-210.133333 469.333333-469.333334 469.333333s-469.333333-210.133333-469.333333-469.333333 210.133333-469.333333 469.333333-469.333333 469.333333 210.133333 469.333334 469.333333z m-853.333334 0a384 384 0 1 0 768 0 384 384 0 0 0-768 0z" fill="#ffffff" p-id="20018"></path><path d="M613.333333 592c24.021333-24.021333 68.48-50.688 133.333334-80-64.725333-29.141333-109.141333-55.808-133.333334-80C589.141333 407.808 562.474667 363.392 533.333333 298.666667c-26.496 62.037333-53.162667 106.496-80 133.333333S382.08 485.504 320 512l24.874667 11.605333c51.498667 24.789333 87.68 47.616 108.458666 68.394667 23.978667 23.978667 50.645333 68.437333 80 133.333333 29.312-64.853333 55.978667-109.312 80-133.333333z m-46.634666-85.845333l7.125333 5.802666-7.168 5.973334c-5.12 4.309333-9.856 8.704-14.293333 13.098666l-6.570667 6.912-6.570667 7.338667-5.888 7.168-5.930666-7.168a248.405333 248.405333 0 0 0-13.098667-14.250667l-6.869333-6.570666-7.381334-6.528-7.082666-5.845334 3.498666-2.816c6.357333-5.333333 12.288-10.794667 17.834667-16.298666l8.192-8.618667 8.106667-9.216 2.816-3.498667 5.76 6.997334a250.581333 250.581333 0 0 0 27.52 27.52z" fill="#ffffff" p-id="20019"></path></svg>